<svg id="Calque_1" data-name="Calque 1" xmlns="http://www.w3.org/2000/svg" viewBox="0 0 130 150"><defs><style>.cls-1{fill:#144455;}.cls-2{fill:#e75244;}.cls-3{fill:#fff;}</style></defs><title>Plan de travail 1</title><path class="cls-1" d="M64.86,149.79,0,112.34V37.45L64.86,0l64.86,37.45v74.9ZM5,109.46,64.86,144l59.86-34.56V40.33L64.86,5.77,5,40.33Z"/><polygon class="cls-1" points="117.3 105.17 64.86 135.45 12.42 105.17 12.42 44.62 64.86 14.34 117.3 44.62 117.3 105.17"/><path class="cls-2" d="M64.86,138.34,9.92,106.62V43.18L64.86,11.46,119.8,43.18v63.44ZM14.92,103.73l49.94,28.83,49.94-28.83V46.06L64.86,17.23,14.92,46.06Z"/><path class="cls-3" d="M41.6,37.32h2.76c1.92,0,2.94,1,2.94,3.27v4.29c0,2.22-1,3.27-2.94,3.27H41.6Zm1.86,9.3h.64c1,0,1.33-.37,1.33-1.52V40.36c0-1.14-.34-1.52-1.33-1.52h-.64Z"/><path class="cls-3" d="M49.35,48.15V37.32h1.86V48.15Z"/><path class="cls-3" d="M53.27,48.15V37.32h2.67c2.29,0,3.36.88,3.36,3.19s-1.06,3.19-3.36,3.19h-.81v4.44Zm1.86-6h.72c1.22,0,1.59-.37,1.59-1.67s-.37-1.67-1.59-1.67h-.72Z"/><path class="cls-3" d="M60.68,48.15V37.32h1.86v9.21h2.92v1.62Z"/><path class="cls-3" d="M66.6,39.94a2.85,2.85,0,0,1,5.7,0v5.58a2.85,2.85,0,0,1-5.7,0Zm2-5.35h1.65l1.44,2.16H70.34l-.89-1.33-.88,1.33H67.19Zm-.16,10.89c0,.81.24,1.2,1,1.2s1-.39,1-1.2V40c0-.81-.24-1.2-1-1.2s-1,.39-1,1.2Z"/><path class="cls-3" d="M81.56,37.32V48.15H79.94V39.69h0l-1.68,8.46h-.9l-1.68-8.46h0v8.46H74V37.32h2.45l1.32,6.33h0l1.32-6.33Z"/><path class="cls-3" d="M83.27,48.15V37.32h5v1.62H85.13v2.79h2.4v1.62h-2.4v3.18h3.33v1.62Z"/><path class="cls-3" d="M29.8,64.15V53.32h1.73l2.26,6.19h0V53.32H35.5V64.15H33.88l-2.37-6.76h0v6.76Z"/><path class="cls-3" d="M38.38,64.15h-1.8l2-10.83h2.31l2,10.83h-1.8l-.33-2.4h-2Zm.6-4h1.5l-.73-4.65h0Z"/><path class="cls-3" d="M44.49,54.94h-1.8V53.32h5.46v1.62h-1.8v9.21H44.49Z"/><path class="cls-3" d="M49.5,64.15V53.32h1.86V64.15Z"/><path class="cls-3" d="M53.41,55.94a2.85,2.85,0,0,1,5.7,0v5.58a2.85,2.85,0,0,1-5.7,0Zm1.86,5.53c0,.81.24,1.2,1,1.2s1-.39,1-1.2V56c0-.81-.24-1.2-1-1.2s-1,.39-1,1.2Z"/><path class="cls-3" d="M60.91,64.15V53.32h1.73l2.26,6.19h0V53.32h1.68V64.15H65l-2.37-6.76h0v6.76Z"/><path class="cls-3" d="M69.49,64.15h-1.8l2-10.83H72l2,10.83h-1.8l-.33-2.4h-2Zm.6-4h1.5l-.73-4.65h0Z"/><path class="cls-3" d="M75,64.15V53.32h1.86v9.21h2.92v1.62Z"/><path class="cls-3" d="M84.24,53.32H87c1.92,0,2.94,1,2.94,3.27v4.29c0,2.22-1,3.27-2.94,3.27H84.24Zm1.86,9.3h.64c1,0,1.33-.37,1.33-1.52V56.36c0-1.14-.34-1.52-1.33-1.52H86.1Z"/><path class="cls-3" d="M91.74,64.15V53.32h5v1.62H93.6v2.79H96v1.62H93.6v3.18h3.33v1.62Z"/><path class="cls-3" d="M52,69.32V80.15H50.36V71.69h0l-1.68,8.46h-.9l-1.68-8.46h0v8.46H44.42V69.32h2.45l1.32,6.33h0l1.32-6.33Z"/><path class="cls-3" d="M54.77,80.15H53l2-10.83h2.31l2,10.83h-1.8l-.33-2.4h-2Zm.6-4h1.5l-.73-4.65h0Z"/><path class="cls-3" d="M63.74,72c-.07-.93-.57-1.2-1-1.2-.6,0-.93.39-.93,1.06,0,1.84,3.78,2.73,3.78,5.67a2.65,2.65,0,0,1-2.94,2.77,2.85,2.85,0,0,1-2.79-3L61.64,77c.07,1.1.51,1.64,1.11,1.64a1,1,0,0,0,1.08-1C63.83,75.54,60,75,60,71.87c0-1.72,1.05-2.7,2.88-2.7a2.6,2.6,0,0,1,2.58,2.63Z"/><path class="cls-3" d="M68.09,70.94h-1.8V69.32h5.46v1.62h-1.8v9.21H68.09Z"/><path class="cls-3" d="M72.84,80.15V69.32h5v1.62H74.7v2.79h2.4v1.62H74.7v3.18H78v1.62Z"/><path class="cls-3" d="M81.36,80.15H79.5V69.32h2.61c2.08,0,3.15.88,3.15,3.19,0,1.74-.67,2.44-1.3,2.73l1.57,4.9H83.64l-1.32-4.48a8.91,8.91,0,0,1-1,0Zm0-6H82c1,0,1.38-.37,1.38-1.67S83,70.85,82,70.85h-.66Z"/><path class="cls-3" d="M42.38,88.59c-.15-1.71-.69-2.43-1.6-2.43-1.36,0-2,1.2-2,4.58s.6,4.57,2,4.57c1.09,0,1.72-.75,1.75-2.76H43.7c0,2.4-1.08,3.75-2.92,3.75s-3.14-1.47-3.14-5.56,1.2-5.56,3.14-5.56c1.6,0,2.59,1.11,2.77,3.42Z"/><path class="cls-3" d="M48.2,96.3c-1.83,0-3.06-1.53-3.06-5.56s1.23-5.56,3.06-5.56,3.06,1.53,3.06,5.56S50,96.3,48.2,96.3Zm0-10.14c-1,0-1.89.9-1.89,4.58s.84,4.57,1.89,4.57,1.89-.9,1.89-4.57S49.25,86.16,48.2,86.16Z"/><path class="cls-3" d="M54.62,85.32l2.79,8h0v-8h1.17V96.15H57.35L54,86.73h0v9.42H52.79V85.32Z"/><path class="cls-3" d="M65.16,85.32v1H62.94v9.84H61.77V86.31H59.55v-1Z"/><path class="cls-3" d="M66.27,85.32h2.61a2.7,2.7,0,0,1,3,2.8,2.6,2.6,0,0,1-1.74,2.66l1.83,5.37H70.71L69,91l-1.53.06v5.07H66.27Zm1.17,4.74h1c1.68,0,2.22-.66,2.22-1.87s-.54-1.87-2.22-1.87h-1Z"/><path class="cls-3" d="M76.53,96.3c-1.83,0-3.06-1.53-3.06-5.56s1.23-5.56,3.06-5.56,3.06,1.53,3.06,5.56S78.36,96.3,76.53,96.3ZM76,82.68h1l1.51,2.07h-1l-1.06-1.53-1.06,1.53h-1Zm.51,3.48c-1,0-1.89.9-1.89,4.58s.84,4.57,1.89,4.57,1.89-.9,1.89-4.57S77.58,86.16,76.53,86.16Z"/><path class="cls-3" d="M82.44,85.32v9.84H86v1H81.27V85.32Z"/><path class="cls-3" d="M92.06,85.32v1H88.28V90h2.79v1H88.28v4.17h4v1H87.11V85.32Zm-2.62-.57h-.75l1.47-2.07h1.17Z"/><path class="cls-3" d="M37.8,101.32h2.55a3,3,0,0,1,0,5.94H39v4.89H37.8ZM39,106.27H40.2c1.17,0,1.86-.63,1.86-2s-.69-2-1.86-2H39Z"/><path class="cls-3" d="M47.49,101.32l2.38,10.83H48.7l-.65-3.21H45.3l-.65,3.21H43.48l2.39-10.83Zm-2,6.63h2.43l-1.2-5.82h0Z"/><path class="cls-3" d="M51,101.32h2.61a2.7,2.7,0,0,1,3,2.8,2.6,2.6,0,0,1-1.74,2.66l1.83,5.37H55.44L53.7,107l-1.53.06v5.07H51Zm1.17,4.74h1c1.68,0,2.22-.66,2.22-1.87s-.54-1.87-2.22-1.87h-1Z"/><path class="cls-3" d="M63,101.32v9.84h3.51v1H61.83V101.32Z"/><path class="cls-3" d="M67.81,101.32v1.5l-.9,2.16h-.45l.69-2.25h-.6v-1.41Z"/><path class="cls-3" d="M74.83,101.32v1H71.05V106h2.79v1H71.05v4.17h4v1H69.88V101.32Zm-2.62-.57h-.75l1.47-2.07H74.1Z"/><path class="cls-3" d="M81.26,101.32v1H79v9.84H77.88v-9.84H75.66v-1Z"/><path class="cls-3" d="M85,101.32l2.38,10.83H86.18l-.65-3.21H82.78l-.65,3.21H81l2.38-10.83Zm-2,6.63h2.43l-1.2-5.82h0Z"/><path class="cls-3" d="M92.65,101.32v1H90.43v9.84H89.26v-9.84H87v-1Z"/></svg>